<svg height="496pt" viewBox="0 0 496 496" width="496pt" xmlns="http://www.w3.org/2000/svg"><path d="m296 168h-32c13.28125 0 24-10.71875 24-24 0-6.640625-2.71875-12.640625-7.039062-16.960938-4.320313-4.320312-10.320313-7.039062-16.960938-7.039062h-24c0-12.160156-2.878906-24-8.320312-34.71875l.320312-.160156c12.960938-26.722656 40.320312-45.121094 72-45.121094 44.160156 0 80 35.839844 80 80s-35.839844 80-80 80v-24c0-4.398438-3.601562-8-8-8zm0 0" fill="#ffeaa7"/><path d="m80 367.039062v32.960938h-1.519531c-14.160157 0-27.519531-4.160156-38.800781-11.679688-11.28125-7.359374-20.480469-18.082031-26-31.039062-3.757813-8.722656-5.679688-18.242188-5.679688-27.761719v-98.71875c0-8.160156 6.640625-14.800781 14.800781-14.800781 5.679688 0 10.800781 3.199219 13.277344 8.160156l3.921875 7.839844h40v32h-40v54.480469c0 6.320312 1.199219 12.558593 3.519531 18.398437 3.199219 7.921875 8.242188 14.640625 14.558594 19.839844 6.242187 5.203125 13.761719 8.722656 21.921875 10.320312zm0 0" fill="#e6e9ed"/><path d="m304 396.238281v.082031c-8.960938 2.398438-18.160156 3.679688-27.601562 3.679688-18.878907 0-37.679688-2.160156-56.078126-6.398438l-76.320312-17.601562-16 16 4.160156 14.480469c3.839844 13.359375 10 25.757812 18.238282 36.71875 8.242187 10.878906 18.402343 20.320312 30.242187 27.679687 17.917969 11.199219 38.558594 17.121094 59.597656 17.121094h-128.238281c-17.679688 0-32-14.320312-32-32v-280c0-4.398438 3.601562-8 8-8h88v96c0 8.800781 7.199219 16 16 16 4.398438 0 8.398438-1.761719 11.28125-4.71875 2.957031-2.882812 4.71875-6.882812 4.71875-11.28125v-48c0-8.800781 7.199219-16 16-16 4.398438 0 8.398438 1.761719 11.28125 4.71875 2.957031 2.882812 4.71875 6.882812 4.71875 11.28125v104c0 8.800781 7.199219 16 16 16 4.398438 0 8.398438-1.761719 11.28125-4.71875 2.957031-2.882812 4.71875-6.882812 4.71875-11.28125v-152h24c4.398438 0 8 3.601562 8 8zm0 0" fill="#ffeaa7"/><path d="m272 168v152c0 4.398438-1.761719 8.398438-4.71875 11.28125-2.882812 2.957031-6.882812 4.71875-11.28125 4.71875-8.800781 0-16-7.199219-16-16v-104c0-4.398438-1.761719-8.398438-4.71875-11.28125-2.882812-2.957031-6.882812-4.71875-11.28125-4.71875-8.800781 0-16 7.199219-16 16v48c0 4.398438-1.761719 8.398438-4.71875 11.28125-2.882812 2.957031-6.882812 4.71875-11.28125 4.71875-8.800781 0-16-7.199219-16-16v-96zm0 0" fill="#ffc729"/><path d="m240 120h24c6.640625 0 12.640625 2.71875 16.960938 7.039062 4.320312 4.320313 7.039062 10.320313 7.039062 16.960938 0 13.28125-10.71875 24-24 24h-144c-13.28125 0-24-10.71875-24-24 0-6.640625 2.71875-12.640625 7.039062-16.960938 4.320313-4.320312 10.320313-7.039062 16.960938-7.039062h16c0-18.398438 13.519531-33.921875 31.679688-36.558594l8-1.121094c10.398437-1.441406 19.679687-7.28125 25.441406-16.082031l6.878906-10.238281 9.359375 9.359375c5.921875 5.921875 10.71875 12.640625 14.320313 19.921875 5.441406 10.71875 8.320312 22.558594 8.320312 34.71875zm0 0" fill="#ffc729"/><path d="m488 213.199219c0 6.242187-4.398438 11.679687-10.640625 12.878906l-17.519531 3.523437c-2.320313.476563-4.480469 1.277344-6.558594 2.398438h-45.28125l-22-5.519531c-5.921875-1.441407-10-6.71875-10-12.800781v-.480469c0-7.277344 5.921875-13.199219 13.199219-13.199219h85.601562c7.277344 0 13.199219 5.921875 13.199219 13.199219zm0 0" fill="#a0d468"/><path d="m440 253.839844c0 11.839844 3.199219 23.441406 9.28125 33.601562.160156.238282.238281.480469.398438.636719 10.082031 16.882813 15.28125 36.242187 14.878906 55.84375v.636719c-.398438 20.480468-6.796875 40.402344-18.558594 57.203125l-3.519531 5.039062c-22.480469 32-54.160157 56.398438-90.960938 69.757813-20.878906 7.601562-42.878906 11.441406-65.039062 11.441406h-46.242188c-21.039062 0-41.679687-5.921875-59.597656-17.121094-11.839844-7.359375-22-16.800781-30.242187-27.679687-8.238282-10.960938-14.398438-23.359375-18.238282-36.71875l-4.160156-14.480469 16-16 76.320312 17.601562c18.398438 4.238282 37.199219 6.398438 56.078126 6.398438 9.441406 0 18.640624-1.28125 27.601562-3.679688v-.082031c4.320312-1.117187 8.558594-2.558593 12.71875-4.238281 12.640625-5.28125 24.242188-12.960938 34.082031-22.800781 16.558594-16.558594 28.558594-36.960938 34.960938-59.4375 4.078125-14.242188 11.757812-27.28125 22.238281-37.761719v-40h45.28125c-4.5625 2.320312-8.320312 6.078125-10.640625 10.800781-1.761719 3.4375-2.640625 7.199219-2.640625 11.039063zm0 0" fill="#fcd770"/><path d="m360 112h-48v-48h-16v64h64zm0 0"/><path d="m328 80h16v16h-16zm0 0"/><path d="m328 144h16v16h-16zm0 0"/><path d="m474.816406 192h-85.632812c-11.679688 0-21.183594 9.503906-21.183594 21.703125 0 9.746094 6.601562 18.191406 16.046875 20.554687l15.953125 3.988282v30.523437c-10.230469 10.992188-17.785156 24.335938-21.902344 38.789063-6.035156 21.097656-17.417968 40.457031-32.9375 55.96875-9.609375 9.601562-20.886718 16.886718-33.160156 21.710937v-177.644531c44.785156-4.058594 80-41.769531 80-87.59375 0-48.519531-39.480469-88-88-88-28.9375 0-56.054688 14.558594-72.335938 37.953125-2.617187-3.585937-5.441406-7.042969-8.640624-10.242187l-16.269532-16.269532-12.265625 18.390625c-4.550781 6.832031-11.824219 11.414063-19.953125 12.574219l-7.992187 1.144531c-14.71875 2.105469-26.871094 11.449219-33.382813 24.007813l-14.222656-99.558594h-62.9375v16h49.0625l13.738281 96.121094c-17.082031.648437-30.800781 14.648437-30.800781 31.878906 0 5.855469 1.695312 11.273438 4.449219 16h-4.449219c-8.824219 0-16 7.175781-16 16v48h-27.054688l-1.6875-3.382812c-3.898437-7.785157-11.730468-12.617188-20.425781-12.617188-12.59375 0-22.832031 10.238281-22.832031 22.832031v98.703125c0 10.6875 2.136719 21.097656 6.34375 30.914063 11.511719 26.878906 36.863281 44.695312 65.65625 47.078125v48.472656c0 22.054688 17.945312 40 40 40h174.449219c23.199219 0 46.015625-4.015625 67.816406-11.945312 38.496094-14 71.261719-39.144532 94.742187-72.6875l3.511719-5.007813c12.710938-18.167969 19.648438-39.488281 20.066407-62.289063.382812-21.140624-5.171876-41.917968-16.441407-60.703124-5.328125-8.894532-8.144531-19.109376-8.144531-29.542969 0-2.578125.609375-5.152344 1.761719-7.457031 2.316406-4.632813 6.558593-7.871094 11.636719-8.886719l17.570312-3.511719c9.863281-1.976562 17.03125-10.722656 17.03125-20.785156 0-11.679688-9.503906-21.183594-21.183594-21.183594zm-402.816406 164.105469c-9.480469-4.402344-17.03125-12.242188-21.023438-22.21875-1.976562-4.925781-2.976562-10.117188-2.976562-15.421875v-46.464844h24zm-50.953125-1.960938c-3.351563-7.816406-5.046875-16.097656-5.046875-24.609375v-98.703125c0-3.769531 3.0625-6.832031 6.832031-6.832031 2.609375 0 4.953125 1.449219 6.113281 3.777344l6.109376 12.222656h36.945312v16h-40v62.464844c0 7.351562 1.382812 14.535156 4.121094 21.367187 6.4375 16.113281 19.605468 28.214844 35.878906 33.398438v18.289062c-22.367188-2.320312-41.953125-16.390625-50.953125-37.375zm282.953125-306.144531c39.695312 0 72 32.304688 72 72 0 36.992188-28.054688 67.527344-64 71.527344v-15.527344c0-8.824219-7.175781-16-16-16h-4.449219c2.753907-4.726562 4.449219-10.144531 4.449219-16 0-17.648438-14.351562-32-32-32h-16.390625c-.847656-9.144531-3.175781-17.960938-6.800781-26.222656 12.625-23.328125 36.472656-37.777344 63.191406-37.777344zm-200 96c0-8.824219 7.175781-16 16-16h32v-16h-6.734375c3.117187-10.640625 12.148437-18.976562 23.542969-20.609375l7.992187-1.144531c12.632813-1.796875 23.925781-8.925782 31-19.535156l1.4375-2.160157 2.472657 2.472657c11.175781 11.175781 18.015624 25.503906 19.785156 40.976562h-63.496094v16h96c8.824219 0 16 7.175781 16 16s-7.175781 16-16 16h-64v16h64v144c0 4.40625-3.59375 8-8 8s-8-3.59375-8-8v-104c0-13.230469-10.769531-24-24-24s-24 10.769531-24 24v48c0 4.40625-3.59375 8-8 8s-8-3.59375-8-8v-104h-64c-8.824219 0-16-7.175781-16-16zm8 336c-13.230469 0-24-10.769531-24-24v-280h80v88c0 13.230469 10.769531 24 24 24s24-10.769531 24-24v-48c0-4.40625 3.59375-8 8-8s8 3.59375 8 8v104c0 13.230469 10.769531 24 24 24s24-10.769531 24-24v-144h16v214.015625c-6.375 1.296875-12.929688 1.984375-19.585938 1.984375-18.246093 0-36.519531-2.078125-54.308593-6.183594l-80.632813-18.609375-22.464844 22.464844 5.417969 18.96875c8.199219 28.703125 26.664063 53.222656 51.972657 69.046875 1.273437.792969 2.5625 1.558594 3.859374 2.3125zm363.832031-261.71875-17.566406 3.511719c-9.96875 1.992187-18.28125 8.34375-22.816406 17.421875-2.257813 4.503906-3.449219 9.5625-3.449219 14.609375 0 13.335937 3.601562 26.390625 10.808594 38.40625 9.335937 15.578125 14.101562 33.402343 13.757812 52.175781-.34375 18.976562-6.277344 37.21875-17.160156 52.769531l-3.511719 5.007813c-21.589843 30.847656-51.710937 53.960937-87.101562 66.832031-20.03125 7.289063-41.007813 10.984375-62.34375 10.984375h-46.203125c-19.597656 0-38.742188-5.496094-55.359375-15.878906-21.949219-13.722656-37.957031-34.984375-45.070313-59.875l-2.832031-9.917969 9.535156-9.535156 71.992188 16.613281c18.96875 4.378906 38.449219 6.59375 57.902343 6.59375 30.242188 0 58.675782-11.777344 80.058594-33.160156 17.429688-17.433594 30.230469-39.175782 37-62.886719 3.6875-12.929687 10.664063-24.785156 20.175782-34.296875l2.351562-2.34375v-49.558594l-28.070312-7.019531c-2.3125-.574219-3.929688-2.644531-3.929688-5.550781 0-2.855469 2.328125-5.183594 5.183594-5.183594h85.625c2.863281 0 5.191406 2.328125 5.191406 5.183594 0 2.472656-1.753906 4.609375-4.167969 5.097656zm0 0"/><path d="m413.199219 378.832031-3.503907 5c-17.824218 25.457031-42.65625 44.511719-71.832031 55.113281-16.527343 6.007813-33.832031 9.054688-51.40625 9.054688v16c19.453125 0 38.589844-3.375 56.878907-10.023438 32.28125-11.730468 59.761718-32.808593 79.472656-60.96875l3.503906-5c1.847656-2.640624 3.550781-5.414062 5.054688-8.253906l-14.136719-7.507812c-1.207031 2.265625-2.550781 4.464844-4.03125 6.585937zm0 0"/><path d="m424.566406 344.007812c-.085937 4.726563-.710937 9.457032-1.863281 14.03125l15.511719 3.90625c1.449218-5.761718 2.242187-11.699218 2.351562-17.648437l.019532-.824219-16-.304687zm0 0"/></svg>